<mxfile host="app.diagrams.net" modified="2023-08-04T08:30:53.760Z" agent="Mozilla/5.0 (Windows NT 10.0; Win64; x64) AppleWebKit/537.36 (KHTML, like Gecko) Chrome/115.0.0.0 Safari/537.36" etag="Fivtiqo4twaU1CSlk4j1" version="21.6.6" type="github">
  <diagram name="Pagina-1" id="9MSZ2gNygYiHxMnFj0Ly">
    <mxGraphModel dx="569" dy="347" grid="1" gridSize="10" guides="1" tooltips="1" connect="1" arrows="1" fold="1" page="1" pageScale="1" pageWidth="827" pageHeight="1169" math="0" shadow="0">
      <root>
        <mxCell id="0" />
        <mxCell id="1" parent="0" />
        <mxCell id="00CxCfxDj973hrB1TbLL-2" value="" style="rounded=1;whiteSpace=wrap;html=1;arcSize=30;rotation=45;fillColor=#647687;fontColor=#ffffff;strokeColor=#314354;" vertex="1" parent="1">
          <mxGeometry x="370" y="190" width="120" height="120" as="geometry" />
        </mxCell>
        <mxCell id="00CxCfxDj973hrB1TbLL-3" value="" style="ellipse;whiteSpace=wrap;html=1;aspect=fixed;fillColor=#C7C7C7;strokeColor=#36393d;" vertex="1" parent="1">
          <mxGeometry x="415" y="200" width="30" height="30" as="geometry" />
        </mxCell>
        <mxCell id="00CxCfxDj973hrB1TbLL-4" value="" style="ellipse;whiteSpace=wrap;html=1;aspect=fixed;fillColor=#C7C7C7;strokeColor=#36393d;" vertex="1" parent="1">
          <mxGeometry x="415" y="270" width="30" height="30" as="geometry" />
        </mxCell>
      </root>
    </mxGraphModel>
  </diagram>
</mxfile>
